<svg width="40" height="40" viewBox="0 0 40 40" fill="none" xmlns="http://www.w3.org/2000/svg">
<circle cx="20" cy="20" r="20" transform="rotate(-180 20 20)" fill="#F1F3F5"/>
<path d="M10.25 20.0002C10.25 19.4827 10.67 19.0627 11.1875 19.0627L26.5903 19.0627L21.0163 13.3417C20.9266 13.2543 20.8553 13.1499 20.8066 13.0346C20.7579 12.9192 20.7328 12.7953 20.7327 12.6701C20.7327 12.5449 20.7578 12.421 20.8064 12.3056C20.8551 12.1903 20.9263 12.0858 21.016 11.9984C21.1057 11.9111 21.212 11.8425 21.3285 11.7969C21.4451 11.7513 21.5697 11.7295 21.6948 11.7327C21.82 11.736 21.9432 11.7643 22.0573 11.816C22.1713 11.8677 22.2738 11.9417 22.3588 12.0337L29.4815 19.3439C29.654 19.5188 29.7507 19.7545 29.7507 20.0002C29.7507 20.2458 29.654 20.4815 29.4815 20.6564L22.3588 27.9667C22.2738 28.0586 22.1713 28.1326 22.0573 28.1843C21.9432 28.236 21.82 28.2643 21.6948 28.2676C21.5697 28.2709 21.4451 28.2491 21.3285 28.2034C21.212 28.1578 21.1057 28.0893 21.016 28.0019C20.9263 27.9145 20.8551 27.8101 20.8064 27.6947C20.7578 27.5794 20.7327 27.4554 20.7327 27.3302C20.7328 27.205 20.7579 27.0811 20.8066 26.9658C20.8553 26.8504 20.9266 26.746 21.0163 26.6587L26.5903 20.9377L11.1875 20.9377C10.67 20.9377 10.25 20.5177 10.25 20.0002Z" fill="#212529"/>
</svg>
