<svg width="24" height="24" viewBox="0 0 24 24" fill="none" xmlns="http://www.w3.org/2000/svg">
<path d="M2.51273 11.995C2.51273 12.5178 2.87445 12.8993 3.39688 12.8993L16.6256 12.8993L18.765 12.8187L15.4706 15.8221L13.2206 18.1124C13.0599 18.2731 12.9793 18.514 12.9793 18.745C12.9793 19.2473 13.3607 19.6193 13.8536 19.6193C14.0944 19.6193 14.3053 19.5284 14.5063 19.3377L21.186 12.6687C21.3866 12.4775 21.4873 12.2465 21.4873 11.9958C21.4873 11.7545 21.3866 11.5235 21.186 11.3324L14.5063 4.66298C14.3049 4.47226 14.0944 4.38184 13.8532 4.38184C13.3612 4.38184 12.9793 4.75341 12.9793 5.24541C12.9793 5.48669 13.0599 5.72755 13.2206 5.88826L15.4706 8.16826L18.7749 11.182L16.6256 11.1014H3.39688C2.87445 11.1014 2.51273 11.4726 2.51273 11.995Z" fill="#212529"/>
</svg>
