<svg width="40" height="40" viewBox="0 0 40 40" fill="none" xmlns="http://www.w3.org/2000/svg">
<circle cx="20" cy="20" r="20" fill="#F1F3F5"/>
<path d="M29.75 19.9998C29.75 20.5173 29.33 20.9373 28.8125 20.9373H13.4097L18.9837 26.6583C19.0734 26.7457 19.1447 26.8501 19.1934 26.9654C19.2421 27.0808 19.2672 27.2047 19.2673 27.3299C19.2673 27.4551 19.2422 27.579 19.1936 27.6944C19.1449 27.8097 19.0737 27.9142 18.984 28.0016C18.8943 28.0889 18.788 28.1575 18.6715 28.2031C18.5549 28.2487 18.4303 28.2705 18.3052 28.2673C18.18 28.264 18.0568 28.2357 17.9427 28.184C17.8287 28.1323 17.7262 28.0583 17.6412 27.9663L10.5185 20.6561C10.346 20.4812 10.2493 20.2455 10.2493 19.9998C10.2493 19.7542 10.346 19.5185 10.5185 19.3436L17.6412 12.0333C17.7262 11.9414 17.8287 11.8674 17.9427 11.8157C18.0568 11.764 18.18 11.7357 18.3052 11.7324C18.4303 11.7291 18.5549 11.7509 18.6715 11.7966C18.788 11.8422 18.8943 11.9107 18.984 11.9981C19.0737 12.0855 19.1449 12.1899 19.1936 12.3053C19.2422 12.4206 19.2673 12.5446 19.2673 12.6698C19.2672 12.795 19.2421 12.9189 19.1934 13.0342C19.1447 13.1496 19.0734 13.254 18.9837 13.3413L13.4097 19.0623H28.8125C29.33 19.0623 29.75 19.4823 29.75 19.9998Z" fill="#212529"/>
</svg>
