<svg width="26" height="33" viewBox="0 0 26 33" fill="none" xmlns="http://www.w3.org/2000/svg">
<path d="M21.5284 17.378C21.4891 13.4207 24.7555 11.5227 24.9015 11.4268C23.0658 8.74263 20.2057 8.37433 19.1878 8.33242C16.7558 8.0854 14.4399 9.76498 13.2061 9.76498C11.9749 9.76498 10.0686 8.36861 8.05184 8.40417C5.39882 8.44354 2.95343 9.94722 1.58819 12.3221C-1.16708 17.1018 0.883336 24.1852 3.56811 28.0644C4.88065 29.9605 6.44593 32.0941 8.49951 32.016C10.4788 31.9379 11.2256 30.7358 13.6182 30.7358C16.0109 30.7358 16.6827 32.016 18.7763 31.976C20.9049 31.9372 22.2542 30.0437 23.556 28.1399C25.0628 25.9371 25.6832 23.8042 25.7201 23.6962C25.6737 23.6746 21.571 22.103 21.5284 17.378Z" fill="white"/>
<path d="M17.5949 5.76526C18.6839 4.44319 19.4218 2.60614 19.2211 0.777344C17.6495 0.840844 15.7471 1.82192 14.6187 3.14271C13.6077 4.31492 12.7238 6.18118 12.9607 7.97696C14.7139 8.11285 16.5021 7.08479 17.5949 5.76526Z" fill="white"/>
</svg>
