<svg width="22" height="20" viewBox="0 0 22 20" fill="none" xmlns="http://www.w3.org/2000/svg">
<g filter="url(#filter0_biiii_388_2725)">
<path d="M19.7763 5.8483L12.6616 5.90642C11.5073 5.91585 10.4052 5.42617 9.63857 4.56323L9.19473 4.06366C8.98819 3.82095 8.66334 3.71536 8.34465 3.71537L1.91384 3.71549C0.852934 3.72578 -0.00122142 4.57001 1.31112e-06 5.60716V18.0798C-5.1851e-05 19.1161 0.853785 19.9591 1.91384 19.9694H19.7763C20.8364 19.9591 21.6902 19.1161 21.6901 18.0798V7.7379C21.6902 6.70158 20.8364 5.85859 19.7763 5.8483Z" fill="white"/>
</g>
<path d="M2.13007 7.77905C1.61894 6.21564 2.49564 4.54148 4.08824 4.03972L14.0273 0.908314C15.6199 0.406553 17.3253 1.26719 17.8365 2.8306L19.6442 8.35991C20.1553 9.92332 19.2786 11.5975 17.686 12.0992L7.74689 15.2307C6.1543 15.7324 4.44889 14.8718 3.93777 13.3084L2.13007 7.77905Z" fill="url(#paint0_linear_388_2725)"/>
<g filter="url(#filter1_biiii_388_2725)">
<path d="M20.0588 5.8483L12.7992 5.90677C11.655 5.91598 10.5615 5.43468 9.7955 4.58459L9.32609 4.06366C9.11618 3.82048 8.78859 3.71536 8.46734 3.71537L1.94118 3.71549C0.865119 3.72578 -0.00123887 4.57001 1.32985e-06 5.60716V18.0798C-5.25917e-05 19.1161 0.865982 19.9591 1.94118 19.9694H20.0588C21.134 19.9591 22.0001 19.1161 22 18.0798V7.7379C22.0001 6.70158 21.134 5.85859 20.0588 5.8483Z" fill="white" fill-opacity="0.56"/>
</g>
<path d="M16.097 9.14504C16.0303 9.12737 15.931 9.14154 16.0202 9.00352C16.11 8.8653 16.2556 8.62918 16.12 8.5044C16.0315 8.42253 15.8856 8.49106 15.7784 8.39891C15.6719 8.30628 15.7114 8.07274 15.4428 7.94773C15.1741 7.82375 14.9411 8.18291 14.9325 8.2394C14.923 8.29634 14.9899 8.44078 15.1569 8.49855C15.3232 8.55609 15.3186 8.58462 15.3894 8.73209C15.4607 8.87945 15.5212 9.00763 15.6301 9.05885C15.7392 9.11031 15.7626 9.26526 15.8947 9.19685C16.0277 9.12854 16.059 9.24187 16.143 9.33636C16.2272 9.43039 16.2688 9.33063 16.2664 9.26305C16.2635 9.19591 16.1736 9.16574 16.097 9.14504Z" fill="#8A2BE2"/>
<path d="M15.5339 9.1663C15.5265 9.16127 15.5196 9.15577 15.511 9.15191C15.4021 9.10068 15.3416 8.97252 15.2703 8.82516C15.1995 8.67768 15.2043 8.64903 15.038 8.5915C14.9344 8.55571 14.8696 8.48659 14.8373 8.42578L14.145 9.35376L14.7567 9.88319L15.5339 9.1663Z" fill="#8A2BE2"/>
<path d="M8.82924 10.1357C6.25609 11.4288 5.48629 13.9075 5.79919 15.5202C5.9304 16.1959 6.52055 16.9074 7.21763 16.6017C7.80861 16.343 8.1617 15.6175 8.88521 15.3871C9.33398 15.244 9.81912 15.6166 10.2199 16.2146C10.8732 17.1895 12.3023 18.3714 14.5443 17.2365C16.5886 16.2018 16.6479 13.0342 15.1217 11.2328C13.7979 9.67081 11.2304 8.92888 8.82924 10.1357ZM8.75639 11.9615C8.42543 11.9615 8.15728 11.699 8.15728 11.3753C8.15728 11.0517 8.42543 10.7898 8.75639 10.7898C9.08747 10.7898 9.35588 11.0517 9.35588 11.3753C9.35588 11.699 9.08747 11.9615 8.75639 11.9615ZM11.1514 11.5386C10.7252 11.5386 10.3797 11.2008 10.3797 10.784C10.3797 10.3674 10.7252 10.0295 11.1514 10.0295C11.578 10.0295 11.9229 10.3674 11.9229 10.784C11.9229 11.2008 11.578 11.5386 11.1514 11.5386ZM13.286 16.7708C12.5193 16.7708 11.898 16.163 11.898 15.4135C11.898 14.6639 12.5193 14.0565 13.286 14.0565C14.0524 14.0565 14.6734 14.6639 14.6734 15.4135C14.6734 16.163 14.0524 16.7708 13.286 16.7708ZM13.6984 13.1021C13.135 13.1021 12.6779 12.6554 12.6779 12.104C12.6779 11.5527 13.135 11.1061 13.6984 11.1061C14.2622 11.1061 14.7194 11.5527 14.7194 12.104C14.7194 12.6554 14.2622 13.1021 13.6984 13.1021Z" fill="#8A2BE2"/>
<path d="M14.6016 10.0519L13.9932 9.52539L13.7358 9.81531C13.9815 9.93576 14.2162 10.0746 14.4377 10.2299L14.6016 10.0519Z" fill="#8A2BE2"/>
<path d="M8.97488 15.6563C8.64153 15.7622 8.39214 16.0036 8.1284 16.259C7.97435 16.4082 7.81611 16.5603 7.63765 16.6866L6.80325 17.6266C6.66032 17.7873 6.62923 17.9936 6.73365 18.0839L6.79716 18.1384C6.90169 18.2286 7.10659 18.173 7.25262 18.0151L9.36085 15.7304C9.26182 15.6729 9.16697 15.6396 9.08168 15.6396C9.04497 15.6396 9.00992 15.6453 8.97488 15.6563Z" fill="#8A2BE2"/>
<defs>
<filter id="filter0_biiii_388_2725" x="-7.4" y="-3.68467" width="36.4899" height="31.0539" filterUnits="userSpaceOnUse" color-interpolation-filters="sRGB">
<feFlood flood-opacity="0" result="BackgroundImageFix"/>
<feGaussianBlur in="BackgroundImageFix" stdDeviation="3.7"/>
<feComposite in2="SourceAlpha" operator="in" result="effect1_backgroundBlur_388_2725"/>
<feBlend mode="normal" in="SourceGraphic" in2="effect1_backgroundBlur_388_2725" result="shape"/>
<feColorMatrix in="SourceAlpha" type="matrix" values="0 0 0 0 0 0 0 0 0 0 0 0 0 0 0 0 0 0 127 0" result="hardAlpha"/>
<feOffset dy="1"/>
<feGaussianBlur stdDeviation="2"/>
<feComposite in2="hardAlpha" operator="arithmetic" k2="-1" k3="1"/>
<feColorMatrix type="matrix" values="0 0 0 0 1 0 0 0 0 1 0 0 0 0 1 0 0 0 0.3 0"/>
<feBlend mode="normal" in2="shape" result="effect2_innerShadow_388_2725"/>
<feColorMatrix in="SourceAlpha" type="matrix" values="0 0 0 0 0 0 0 0 0 0 0 0 0 0 0 0 0 0 127 0" result="hardAlpha"/>
<feOffset dy="-1"/>
<feGaussianBlur stdDeviation="2"/>
<feComposite in2="hardAlpha" operator="arithmetic" k2="-1" k3="1"/>
<feColorMatrix type="matrix" values="0 0 0 0 1 0 0 0 0 1 0 0 0 0 1 0 0 0 0.5 0"/>
<feBlend mode="normal" in2="effect2_innerShadow_388_2725" result="effect3_innerShadow_388_2725"/>
<feColorMatrix in="SourceAlpha" type="matrix" values="0 0 0 0 0 0 0 0 0 0 0 0 0 0 0 0 0 0 127 0" result="hardAlpha"/>
<feOffset dy="1"/>
<feGaussianBlur stdDeviation="22"/>
<feComposite in2="hardAlpha" operator="arithmetic" k2="-1" k3="1"/>
<feColorMatrix type="matrix" values="0 0 0 0 1 0 0 0 0 1 0 0 0 0 1 0 0 0 0.45 0"/>
<feBlend mode="normal" in2="effect3_innerShadow_388_2725" result="effect4_innerShadow_388_2725"/>
<feColorMatrix in="SourceAlpha" type="matrix" values="0 0 0 0 0 0 0 0 0 0 0 0 0 0 0 0 0 0 127 0" result="hardAlpha"/>
<feOffset dx="1" dy="1"/>
<feGaussianBlur stdDeviation="1"/>
<feComposite in2="hardAlpha" operator="arithmetic" k2="-1" k3="1"/>
<feColorMatrix type="matrix" values="0 0 0 0 1 0 0 0 0 1 0 0 0 0 1 0 0 0 1 0"/>
<feBlend mode="normal" in2="effect4_innerShadow_388_2725" result="effect5_innerShadow_388_2725"/>
</filter>
<filter id="filter1_biiii_388_2725" x="-7.4" y="-3.68467" width="36.8" height="31.0539" filterUnits="userSpaceOnUse" color-interpolation-filters="sRGB">
<feFlood flood-opacity="0" result="BackgroundImageFix"/>
<feGaussianBlur in="BackgroundImageFix" stdDeviation="3.7"/>
<feComposite in2="SourceAlpha" operator="in" result="effect1_backgroundBlur_388_2725"/>
<feBlend mode="normal" in="SourceGraphic" in2="effect1_backgroundBlur_388_2725" result="shape"/>
<feColorMatrix in="SourceAlpha" type="matrix" values="0 0 0 0 0 0 0 0 0 0 0 0 0 0 0 0 0 0 127 0" result="hardAlpha"/>
<feOffset dy="1"/>
<feGaussianBlur stdDeviation="2"/>
<feComposite in2="hardAlpha" operator="arithmetic" k2="-1" k3="1"/>
<feColorMatrix type="matrix" values="0 0 0 0 1 0 0 0 0 1 0 0 0 0 1 0 0 0 0.3 0"/>
<feBlend mode="normal" in2="shape" result="effect2_innerShadow_388_2725"/>
<feColorMatrix in="SourceAlpha" type="matrix" values="0 0 0 0 0 0 0 0 0 0 0 0 0 0 0 0 0 0 127 0" result="hardAlpha"/>
<feOffset dy="-1"/>
<feGaussianBlur stdDeviation="2"/>
<feComposite in2="hardAlpha" operator="arithmetic" k2="-1" k3="1"/>
<feColorMatrix type="matrix" values="0 0 0 0 1 0 0 0 0 1 0 0 0 0 1 0 0 0 0.5 0"/>
<feBlend mode="normal" in2="effect2_innerShadow_388_2725" result="effect3_innerShadow_388_2725"/>
<feColorMatrix in="SourceAlpha" type="matrix" values="0 0 0 0 0 0 0 0 0 0 0 0 0 0 0 0 0 0 127 0" result="hardAlpha"/>
<feOffset dy="1"/>
<feGaussianBlur stdDeviation="22"/>
<feComposite in2="hardAlpha" operator="arithmetic" k2="-1" k3="1"/>
<feColorMatrix type="matrix" values="0 0 0 0 1 0 0 0 0 1 0 0 0 0 1 0 0 0 0.45 0"/>
<feBlend mode="normal" in2="effect3_innerShadow_388_2725" result="effect4_innerShadow_388_2725"/>
<feColorMatrix in="SourceAlpha" type="matrix" values="0 0 0 0 0 0 0 0 0 0 0 0 0 0 0 0 0 0 127 0" result="hardAlpha"/>
<feOffset dx="1" dy="1"/>
<feGaussianBlur stdDeviation="1"/>
<feComposite in2="hardAlpha" operator="arithmetic" k2="-1" k3="1"/>
<feColorMatrix type="matrix" values="0 0 0 0 1 0 0 0 0 1 0 0 0 0 1 0 0 0 1 0"/>
<feBlend mode="normal" in2="effect4_innerShadow_388_2725" result="effect5_innerShadow_388_2725"/>
</filter>
<linearGradient id="paint0_linear_388_2725" x1="0.188532" y1="11.6925" x2="-0.0641792" y2="2.60046" gradientUnits="userSpaceOnUse">
<stop stop-color="#CE7EF6"/>
<stop offset="1" stop-color="#8A2BE2"/>
</linearGradient>
</defs>
</svg>
