<svg width="32" height="32" viewBox="0 0 32 32" fill="none" xmlns="http://www.w3.org/2000/svg">
<rect width="32" height="32" rx="6" fill="black"/>
<path d="M13.0352 21.1249C12.8716 21.8184 12.9351 22.7913 13.0064 23.4251C12.9304 23.6608 13.284 23.8783 13.5636 23.6184C13.8947 23.0859 14.3913 22.2134 14.5751 21.5171C14.6742 21.1419 15.0823 19.6119 15.0823 19.6119C15.3479 20.1103 16.1236 20.5328 16.9493 20.5328C19.4044 20.5328 21.1743 18.3093 21.1743 15.5468C21.1743 12.8989 18.979 10.917 16.1544 10.917C12.6406 10.917 10.7745 13.2399 10.7745 15.7685C10.7745 16.9432 11.4097 18.4078 12.426 18.8739C12.581 18.944 12.6637 18.9128 12.6993 18.7659C12.7263 18.6551 12.8639 18.1104 12.9255 17.8574C12.9448 17.7759 12.9351 17.7068 12.8687 17.6272C12.5319 17.2255 12.2634 16.4866 12.2634 15.7978C12.2634 14.03 13.6233 12.3191 15.9398 12.3191C17.9406 12.3191 19.3409 13.6606 19.3409 15.5799C19.3409 17.7485 18.2284 19.251 16.7809 19.251C15.9821 19.251 15.3835 18.6011 15.575 17.8025C15.805 16.8494 16.2497 15.8215 16.2497 15.1337C16.2497 14.5179 15.9138 14.0045 15.2199 14.0045C14.4018 14.0045 13.7464 14.8363 13.7464 15.9513C13.7464 16.6609 13.9899 17.1412 13.9899 17.1412C13.9899 17.1412 13.1825 20.4996 13.0352 21.1249Z" fill="white"/>
</svg>
