<svg width="102" height="18" viewBox="0 0 102 18" fill="none" xmlns="http://www.w3.org/2000/svg">
<path d="M9 0L11.0206 6.21885H17.5595L12.2694 10.0623L14.2901 16.2812L9 12.4377L3.70993 16.2812L5.73056 10.0623L0.440492 6.21885H6.97937L9 0Z" fill="#FFC250"/>
<path d="M30 0L32.0206 6.21885H38.5595L33.2694 10.0623L35.2901 16.2812L30 12.4377L24.7099 16.2812L26.7306 10.0623L21.4405 6.21885H27.9794L30 0Z" fill="#FFC250"/>
<path d="M51 0L53.0206 6.21885H59.5595L54.2694 10.0623L56.2901 16.2812L51 12.4377L45.7099 16.2812L47.7306 10.0623L42.4405 6.21885H48.9794L51 0Z" fill="#FFC250"/>
<path d="M72 0L74.0206 6.21885H80.5595L75.2694 10.0623L77.2901 16.2812L72 12.4377L66.7099 16.2812L68.7306 10.0623L63.4405 6.21885H69.9794L72 0Z" fill="#FFC250"/>
<path d="M93 0L95.0206 6.21885H101.56L96.2694 10.0623L98.2901 16.2812L93 12.4377L87.7099 16.2812L89.7306 10.0623L84.4405 6.21885H90.9794L93 0Z" fill="#FFC250"/>
</svg>
