<svg width="32" height="32" viewBox="0 0 32 32" fill="none" xmlns="http://www.w3.org/2000/svg">
<rect width="32" height="32" rx="6" fill="black"/>
<path fill-rule="evenodd" clip-rule="evenodd" d="M14.3183 14.0877V13.3856C14.0747 13.3511 13.829 13.3332 13.5829 13.332C10.5734 13.332 8.125 15.7809 8.125 18.7903C8.125 20.6364 9.04763 22.2706 10.4551 23.2588C9.51268 22.251 8.98875 20.9225 8.98951 19.5427C8.98951 16.5761 11.3682 14.157 14.3183 14.0877Z" fill="#00F2EA"/>
<path fill-rule="evenodd" clip-rule="evenodd" d="M14.447 22.035C15.7897 22.035 16.8851 20.9669 16.935 19.6357L16.9395 7.75237H19.1104C19.0641 7.50426 19.0407 7.25241 19.0404 7H16.0754L16.0705 18.8838C16.021 20.2145 14.9252 21.2823 13.5829 21.2823C13.1799 21.2824 12.783 21.1842 12.4265 20.9962C12.6567 21.3172 12.96 21.579 13.3113 21.7596C13.6626 21.9403 14.0519 22.0347 14.447 22.035ZM23.1658 11.7859V11.1254C22.368 11.1262 21.5873 10.8941 20.9194 10.4576C21.505 11.1318 22.2933 11.5978 23.1663 11.7859" fill="#00F2EA"/>
<path fill-rule="evenodd" clip-rule="evenodd" d="M20.9193 10.4573C20.2648 9.70846 19.9043 8.74751 19.9047 7.75293H19.1103C19.2132 8.30266 19.4265 8.82579 19.7374 9.29064C20.0484 9.7555 20.4504 10.1524 20.9193 10.4573ZM13.5827 16.2974C12.9219 16.2982 12.2884 16.561 11.8211 17.0283C11.3538 17.4955 11.091 18.1291 11.0902 18.7899C11.0907 19.2445 11.2153 19.6903 11.4507 20.0792C11.6862 20.468 12.0234 20.7851 12.4259 20.9963C12.1194 20.5736 11.9544 20.0648 11.9543 19.5427C11.955 18.8818 12.2178 18.2482 12.685 17.7808C13.1523 17.3134 13.7859 17.0505 14.4468 17.0498C14.7037 17.0498 14.9498 17.0922 15.1823 17.1652V14.138C14.9386 14.1035 14.6929 14.0855 14.4468 14.0844C14.4035 14.0844 14.3611 14.0869 14.3182 14.0877V16.4128C14.0803 16.3371 13.8323 16.2982 13.5827 16.2974Z" fill="#FF004F"/>
<path fill-rule="evenodd" clip-rule="evenodd" d="M23.1659 11.7856V14.0901C21.6282 14.0901 20.2039 13.5983 19.0405 12.7635V18.7894C19.0405 21.7989 16.5925 24.2473 13.583 24.2473C12.42 24.2473 11.3416 23.8804 10.4552 23.2579C10.9648 23.8074 11.5824 24.2458 12.2693 24.5455C12.9562 24.8452 13.6976 24.9999 14.4471 24.9997C17.4566 24.9997 19.905 22.5513 19.905 19.5422V13.5162C21.1068 14.3805 22.5501 14.8446 24.0304 14.8429V11.8771C23.7336 11.8771 23.445 11.8449 23.1659 11.7852" fill="#FF004F"/>
<path fill-rule="evenodd" clip-rule="evenodd" d="M19.0405 18.7899V12.7639C20.2423 13.6282 21.6856 14.0924 23.166 14.0906V11.786C22.2931 11.5978 21.5049 11.1316 20.9196 10.4573C20.4507 10.1524 20.0487 9.7555 19.7377 9.29064C19.4268 8.82579 19.2134 8.30266 19.1106 7.75293H16.9396L16.9351 19.6363C16.8852 20.967 15.7898 22.0352 14.4471 22.0352C14.052 22.0348 13.6627 21.9403 13.3114 21.7597C12.9601 21.5791 12.6568 21.3174 12.4266 20.9963C12.024 20.7852 11.6867 20.4681 11.4512 20.0792C11.2157 19.6904 11.091 19.2445 11.0905 18.7899C11.0913 18.1291 11.3541 17.4955 11.8214 17.0283C12.2886 16.561 12.9222 16.2982 13.583 16.2974C13.8394 16.2974 14.0856 16.3394 14.3185 16.4128V14.0877C11.3683 14.1569 8.98962 16.5761 8.98962 19.5427C8.98962 20.9773 9.547 22.2834 10.4552 23.2588C11.3708 23.9033 12.4633 24.2488 13.583 24.2478C16.5925 24.2478 19.0405 21.7994 19.0405 18.7899Z" fill="white"/>
</svg>
