<svg width="32" height="32" viewBox="0 0 32 32" fill="none" xmlns="http://www.w3.org/2000/svg">
<rect width="32" height="32" rx="6" fill="black"/>
<path d="M16.0645 12C16.0645 12 12.2713 12 11.3193 12.2474C10.8095 12.3898 10.3898 12.8096 10.2474 13.3268C10 14.2788 10 16.2504 10 16.2504C10 16.2504 10 18.2294 10.2474 19.1665C10.3898 19.6837 10.8021 20.096 11.3193 20.2384C12.2788 20.4933 16.0645 20.4933 16.0645 20.4933C16.0645 20.4933 19.8651 20.4933 20.8171 20.2459C21.3344 20.1035 21.7466 19.6987 21.8815 19.174C22.1364 18.2294 22.1364 16.2579 22.1364 16.2579C22.1364 16.2579 22.1439 14.2788 21.8815 13.3268C21.7466 12.8096 21.3344 12.3973 20.8171 12.2624C19.8651 12 16.0645 12 16.0645 12ZM14.8575 14.4288L18.0135 16.2504L14.8575 18.0645V14.4288Z" fill="white"/>
</svg>
