<svg width="54" height="38" viewBox="0 0 54 38" fill="none" xmlns="http://www.w3.org/2000/svg">
<path opacity="0.1" d="M31.6821 37.3091V31.897H39.9567V7.83031H33.1389V3.68486C34.9648 3.3394 36.5575 2.93637 37.9172 2.47577C39.2769 1.97678 40.5394 1.38183 41.7048 0.690918H46.7162V31.897H54.0001V37.3091H31.6821Z" fill="#495057"/>
<path opacity="0.1" d="M12.5866 38C8.74073 38 5.67176 36.3495 3.37975 33.0485C1.12658 29.7475 0 25.0071 0 18.8273C0 12.6475 1.12658 7.96464 3.37975 4.77879C5.67176 1.59293 8.74073 0 12.5866 0C16.4326 0 19.4821 1.59293 21.7353 4.77879C24.0273 7.96464 25.1733 12.6475 25.1733 18.8273C25.1733 25.0071 24.0273 29.7475 21.7353 33.0485C19.4821 36.3495 16.4326 38 12.5866 38ZM12.5866 32.8182C13.7909 32.8182 14.8592 32.3768 15.7916 31.4939C16.7239 30.5727 17.4426 29.0949 17.9476 27.0606C18.4915 25.0263 18.7634 22.2818 18.7634 18.8273C18.7634 15.3727 18.4915 12.6475 17.9476 10.6515C17.4426 8.65555 16.7239 7.25454 15.7916 6.44848C14.8592 5.60404 13.7909 5.18182 12.5866 5.18182C11.4212 5.18182 10.3723 5.60404 9.43999 6.44848C8.50764 7.25454 7.76954 8.65555 7.22567 10.6515C6.6818 12.6475 6.40987 15.3727 6.40987 18.8273C6.40987 22.2818 6.6818 25.0263 7.22567 27.0606C7.76954 29.0949 8.50764 30.5727 9.43999 31.4939C10.3723 32.3768 11.4212 32.8182 12.5866 32.8182Z" fill="#495057"/>
</svg>
