<svg width="54" height="38" viewBox="0 0 54 38" fill="none" xmlns="http://www.w3.org/2000/svg">
<path opacity="0.1" d="M29.2372 37.3091V33.4515C32.654 30.1505 35.591 27.2141 38.0481 24.6424C40.5436 22.0323 42.4632 19.6717 43.8069 17.5606C45.1506 15.4111 45.8225 13.4151 45.8225 11.5727C45.8225 9.65353 45.3042 8.11818 44.2676 6.96667C43.231 5.81515 41.7338 5.23939 39.7758 5.23939C38.3553 5.23939 37.0499 5.64242 35.8598 6.44848C34.708 7.25454 33.633 8.21414 32.6349 9.32727L28.9492 5.64242C30.6385 3.83838 32.3853 2.45656 34.1897 1.49697C35.9942 0.498988 38.1441 0 40.6396 0C44.1716 0 46.9743 1.01717 49.0474 3.05151C51.159 5.08586 52.2148 7.81111 52.2148 11.2273C52.2148 13.3768 51.6005 15.5838 50.372 17.8485C49.1818 20.0747 47.5693 22.3586 45.5346 24.7C43.5382 27.0414 41.3306 29.498 38.9119 32.0697C39.8717 31.9929 40.9083 31.9162 42.0217 31.8394C43.1351 31.7242 44.1333 31.6667 45.0163 31.6667H54V37.3091H29.2372Z" fill="#495057"/>
<path opacity="0.1" d="M12.439 38C8.6382 38 5.60523 36.3495 3.3401 33.0485C1.11337 29.7475 0 25.0071 0 18.8273C0 12.6475 1.11337 7.96464 3.3401 4.77879C5.60523 1.59293 8.6382 0 12.439 0C16.2398 0 19.2536 1.59293 21.4803 4.77879C23.7455 7.96464 24.878 12.6475 24.878 18.8273C24.878 25.0071 23.7455 29.7475 21.4803 33.0485C19.2536 36.3495 16.2398 38 12.439 38ZM12.439 32.8182C13.6292 32.8182 14.6849 32.3768 15.6063 31.4939C16.5278 30.5727 17.238 29.0949 17.7371 27.0606C18.2746 25.0263 18.5433 22.2818 18.5433 18.8273C18.5433 15.3727 18.2746 12.6475 17.7371 10.6515C17.238 8.65555 16.5278 7.25454 15.6063 6.44848C14.6849 5.60404 13.6292 5.18182 12.439 5.18182C11.2872 5.18182 10.2507 5.60404 9.32926 6.44848C8.40785 7.25454 7.6784 8.65555 7.14091 10.6515C6.60342 12.6475 6.33468 15.3727 6.33468 18.8273C6.33468 22.2818 6.60342 25.0263 7.14091 27.0606C7.6784 29.0949 8.40785 30.5727 9.32926 31.4939C10.2507 32.3768 11.2872 32.8182 12.439 32.8182Z" fill="#495057"/>
</svg>
