<svg width="54" height="38" viewBox="0 0 54 38" fill="none" xmlns="http://www.w3.org/2000/svg">
<path opacity="0.1" d="M41.0892 38C38.1172 38 35.6083 37.501 33.5626 36.503C31.5555 35.4667 29.8958 34.2384 28.5835 32.8182L31.7678 28.5576C32.8872 29.6707 34.1609 30.6303 35.589 31.4364C37.0171 32.204 38.6575 32.5879 40.5102 32.5879C42.5173 32.5879 44.1384 32.1081 45.3735 31.1485C46.6473 30.1505 47.2841 28.7879 47.2841 27.0606C47.2841 25.7939 46.9561 24.7 46.2999 23.7788C45.6823 22.8192 44.5823 22.0899 42.9998 21.5909C41.4559 21.0919 39.2751 20.8424 36.4575 20.8424V16.0061C40.0856 16.0061 42.5945 15.4495 43.984 14.3364C45.3735 13.2232 46.0683 11.8222 46.0683 10.1333C46.0683 8.59798 45.5858 7.40808 44.6209 6.56363C43.6559 5.6808 42.3243 5.23939 40.626 5.23939C39.1979 5.23939 37.8856 5.56565 36.689 6.21818C35.4925 6.83232 34.3346 7.65757 33.2152 8.69394L29.7993 4.60606C31.3818 3.22424 33.0608 2.11111 34.8363 1.26666C36.6504 0.42222 38.6575 0 40.8576 0C44.4086 0 47.2841 0.844444 49.4842 2.53333C51.6843 4.18384 52.7843 6.56363 52.7843 9.67273C52.7843 11.7071 52.2054 13.4343 51.0474 14.8545C49.9281 16.2364 48.3649 17.3111 46.3578 18.0788V18.3091C48.5193 18.8848 50.3334 19.9404 51.8001 21.4758C53.2668 23.0111 54.0002 24.9879 54.0002 27.4061C54.0002 29.6323 53.4019 31.5323 52.2054 33.1061C51.0474 34.6798 49.4842 35.8889 47.5157 36.7333C45.5858 37.5778 43.4437 38 41.0892 38Z" fill="#495057"/>
<path opacity="0.1" d="M12.5057 38C8.68451 38 5.63528 36.3495 3.35801 33.0485C1.11934 29.7475 0 25.0071 0 18.8273C0 12.6475 1.11934 7.96464 3.35801 4.77879C5.63528 1.59293 8.68451 0 12.5057 0C16.3269 0 19.3568 1.59293 21.5955 4.77879C23.8728 7.96464 25.0114 12.6475 25.0114 18.8273C25.0114 25.0071 23.8728 29.7475 21.5955 33.0485C19.3568 36.3495 16.3269 38 12.5057 38ZM12.5057 32.8182C13.7022 32.8182 14.7637 32.3768 15.69 31.4939C16.6164 30.5727 17.3304 29.0949 17.8322 27.0606C18.3726 25.0263 18.6427 22.2818 18.6427 18.8273C18.6427 15.3727 18.3726 12.6475 17.8322 10.6515C17.3304 8.65555 16.6164 7.25454 15.69 6.44848C14.7637 5.60404 13.7022 5.18182 12.5057 5.18182C11.3478 5.18182 10.3056 5.60404 9.37927 6.44848C8.45292 7.25454 7.71956 8.65555 7.17919 10.6515C6.63882 12.6475 6.36864 15.3727 6.36864 18.8273C6.36864 22.2818 6.63882 25.0263 7.17919 27.0606C7.71956 29.0949 8.45292 30.5727 9.37927 31.4939C10.3056 32.3768 11.3478 32.8182 12.5057 32.8182Z" fill="#495057"/>
</svg>
