<svg width="54" height="38" viewBox="0 0 54 38" fill="none" xmlns="http://www.w3.org/2000/svg">
<path opacity="0.1" d="M33.962 22.7429H43.3882V14.452C43.3882 13.3773 43.4258 12.1106 43.5011 10.652C43.5763 9.19343 43.6328 7.92676 43.6704 6.85201H43.4446C42.9931 7.81161 42.5227 8.75202 42.0335 9.67323C41.5443 10.5944 41.0363 11.554 40.5095 12.552L33.962 22.7429ZM43.3882 37.3096V27.8672H27.5273V23.3763L41.7513 0.691406H49.4842V22.7429H53.9997V27.8672H49.4842V37.3096H43.3882Z" fill="#495057"/>
<path opacity="0.1" d="M12.192 38C8.46665 38 5.49391 36.3495 3.27377 33.0485C1.09126 29.7475 0 25.0071 0 18.8273C0 12.6475 1.09126 7.96464 3.27377 4.77879C5.49391 1.59293 8.46665 0 12.192 0C15.9173 0 18.8712 1.59293 21.0537 4.77879C23.2739 7.96464 24.3839 12.6475 24.3839 18.8273C24.3839 25.0071 23.2739 29.7475 21.0537 33.0485C18.8712 36.3495 15.9173 38 12.192 38ZM12.192 32.8182C13.3585 32.8182 14.3933 32.3768 15.2964 31.4939C16.1995 30.5727 16.8957 29.0949 17.3848 27.0606C17.9117 25.0263 18.1751 22.2818 18.1751 18.8273C18.1751 15.3727 17.9117 12.6475 17.3848 10.6515C16.8957 8.65555 16.1995 7.25454 15.2964 6.44848C14.3933 5.60404 13.3585 5.18182 12.192 5.18182C11.0631 5.18182 10.0471 5.60404 9.14398 6.44848C8.24087 7.25454 7.52591 8.65555 6.99909 10.6515C6.47228 12.6475 6.20887 15.3727 6.20887 18.8273C6.20887 22.2818 6.47228 25.0263 6.99909 27.0606C7.52591 29.0949 8.24087 30.5727 9.14398 31.4939C10.0471 32.3768 11.0631 32.8182 12.192 32.8182Z" fill="#495057"/>
</svg>
